<svg width="828" height="749" viewBox="0 0 828 749" fill="none" xmlns="http://www.w3.org/2000/svg">
<path d="M60.886 586.04V582.8H88.066H115.336V583.16C115.456 583.58 115.906 587.45 116.686 594.77C117.586 602.27 118.066 606.14 118.126 606.38V606.74H114.886H111.646C111.646 606.5 111.556 605.87 111.376 604.85C111.076 602.45 110.746 600.62 110.386 599.36C109.186 594.68 106.546 591.65 102.466 590.27C101.866 590.03 101.206 589.85 100.486 589.73C99.286 589.49 96.346 589.34 91.666 589.28H85.636V599.72V610.16H87.076C90.556 610.16 92.956 609.5 94.276 608.18C95.416 607.04 96.076 604.79 96.256 601.43V599.63H99.496H102.736V613.4V627.17H99.496H96.256V625.37C96.076 622.01 95.416 619.76 94.276 618.62C92.956 617.3 90.556 616.64 87.076 616.64H85.636V627.08V637.52H91.756H97.786V640.76V644H96.526L86.716 643.82C81.016 643.76 75.676 643.76 70.696 643.82C64.876 643.94 61.996 644 62.056 644H60.886V640.76V637.52H65.746H70.606V613.4V589.28H65.746H60.886V586.04ZM139.513 585.5V582.26H140.683C140.623 582.26 143.503 582.32 149.323 582.44C154.303 582.5 159.643 582.5 165.343 582.44L175.153 582.26H176.413V585.5V588.74H170.383H164.263V613.13V637.52H168.133C170.893 637.52 172.543 637.46 173.083 637.34C175.543 637.04 177.763 636.23 179.743 634.91C183.403 632.39 185.713 628.19 186.673 622.31C187.153 619.67 187.393 617.96 187.393 617.18C187.393 617.12 188.473 617.09 190.633 617.09H193.873V617.54C193.753 617.84 193.303 622.16 192.523 630.5C191.623 639.08 191.143 643.43 191.083 643.55V644H165.253H139.513V640.76V637.52H144.373H149.233V613.13V588.74H144.373H139.513V585.5ZM247.637 581.36C249.617 581.24 252.107 581.27 255.107 581.45C263.267 582.35 269.837 585.26 274.817 590.18C279.677 595.04 282.587 601.43 283.547 609.35C283.787 611.75 283.787 614.36 283.547 617.18C283.547 617.3 283.547 617.42 283.547 617.54C282.647 625.04 279.887 631.16 275.267 635.9C273.047 638.06 270.527 639.86 267.707 641.3C263.987 643.1 259.787 644.27 255.107 644.81C252.587 645.05 249.767 645.05 246.647 644.81C246.467 644.81 246.317 644.81 246.197 644.81C237.677 643.79 230.987 640.82 226.127 635.9C221.447 631.22 218.657 625.1 217.757 617.54C217.517 615.26 217.517 612.68 217.757 609.8C217.757 609.62 217.757 609.47 217.757 609.35C218.237 605.75 218.987 602.69 220.007 600.17C222.707 593.27 227.237 588.26 233.597 585.14C237.677 583.04 242.357 581.78 247.637 581.36ZM252.497 587.21C247.457 586.67 243.167 588.02 239.627 591.26C238.787 592.04 238.037 592.91 237.377 593.87C235.757 596.33 234.647 599.39 234.047 603.05C233.447 607.43 233.357 612.65 233.777 618.71C233.837 619.25 233.897 619.76 233.957 620.24C234.617 627.14 236.777 632.15 240.437 635.27C244.397 638.57 248.897 639.68 253.937 638.6C256.517 638.06 258.827 636.95 260.867 635.27C264.527 632.15 266.687 627.14 267.347 620.24C267.947 615.2 267.977 609.86 267.437 604.22C267.377 603.8 267.317 603.41 267.257 603.05C266.837 600.47 266.117 598.07 265.097 595.85C262.577 590.75 258.377 587.87 252.497 587.21ZM306.611 585.5V582.26H325.241C337.841 582.32 345.191 582.47 347.291 582.71C353.411 583.55 358.331 585.44 362.051 588.38C364.871 590.78 366.671 593.72 367.451 597.2C367.691 598.52 367.691 600.05 367.451 601.79C366.971 603.65 366.221 605.3 365.201 606.74C363.881 608.6 362.201 610.13 360.161 611.33C359.081 611.93 357.641 612.62 355.841 613.4L354.941 613.76L355.661 614.12C357.701 615.44 359.231 616.85 360.251 618.35C361.091 619.43 361.661 620.48 361.961 621.5C362.381 622.4 362.801 624.65 363.221 628.25C363.701 631.91 364.061 634.07 364.301 634.73C365.261 637.85 367.241 639.41 370.241 639.41C370.901 639.41 371.381 639.35 371.681 639.23C372.881 638.21 373.601 636.86 373.841 635.18C373.841 634.52 374.141 633.98 374.741 633.56C375.161 633.38 376.481 633.35 378.701 633.47C379.121 633.47 379.361 633.5 379.421 633.56C379.841 633.8 380.111 634.16 380.231 634.64C380.471 635.18 380.411 636.11 380.051 637.43C379.091 640.97 376.961 643.31 373.661 644.45C373.061 644.63 372.461 644.78 371.861 644.9C370.001 645.2 366.851 645.14 362.411 644.72C354.191 643.88 349.421 640.88 348.101 635.72C347.981 635.36 347.891 634.97 347.831 634.55C347.771 634.13 347.741 632.24 347.741 628.88C347.741 625.22 347.591 622.88 347.291 621.86C346.451 619.22 344.891 617.39 342.611 616.37C341.771 616.01 339.761 615.83 336.581 615.83H335.591H330.821V626.63V637.52H335.681H340.541V640.76V644H339.371C339.431 644 336.611 643.94 330.911 643.82C326.051 643.76 321.161 643.76 316.241 643.82C310.541 643.94 307.721 644 307.781 644H306.611V640.76V637.52H311.471H316.331V613.13V588.74H311.471H306.611V585.5ZM341.981 588.83C341.501 588.77 339.401 588.74 335.681 588.74H330.821V599.54V610.34H336.581C340.901 610.28 343.721 610.1 345.041 609.8C346.481 609.5 347.861 608.93 349.181 608.09C350.321 607.19 351.071 605.78 351.431 603.86C351.731 601.82 351.761 599.36 351.521 596.48C351.341 593.72 350.471 591.8 348.911 590.72C348.611 590.54 348.281 590.36 347.921 590.18C346.241 589.46 344.261 589.01 341.981 588.83ZM396.008 585.5V582.26H397.268L406.088 582.44C411.248 582.5 416.378 582.5 421.478 582.44L430.388 582.26H431.558V585.5V588.74H426.428H421.298V613.13V637.52H426.428H431.558V640.76V644H430.298L421.478 643.82C416.378 643.76 411.248 643.76 406.088 643.82L397.178 644H396.008V640.76V637.52H401.138H406.268V613.13V588.74H401.138H396.008V585.5ZM450.417 585.5V582.26H470.757C484.617 582.26 491.817 582.29 492.357 582.35C496.497 582.59 500.157 583.52 503.337 585.14C506.457 586.76 508.797 589.04 510.357 591.98C510.897 593.06 511.287 594.23 511.527 595.49C511.827 596.99 511.857 598.61 511.617 600.35C510.957 603.05 509.577 605.36 507.477 607.28C505.137 609.2 502.347 610.58 499.107 611.42L498.117 611.69L498.747 611.78C504.447 612.74 508.647 614.81 511.347 617.99C512.847 619.85 513.867 621.95 514.407 624.29C514.527 624.83 514.587 625.7 514.587 626.9C514.647 629.42 514.047 631.88 512.787 634.28C510.207 639.2 505.527 642.26 498.747 643.46C498.327 643.52 497.877 643.58 497.397 643.64C495.777 643.88 487.347 644 472.107 644H450.417V640.76V637.52H455.277H460.137V613.13V588.74H455.277H450.417V585.5ZM491.367 589.01L490.737 588.83L482.457 588.74H474.177V598.91V609.17H480.657C485.157 609.17 487.587 609.14 487.947 609.08C492.507 608.54 495.327 606.02 496.407 601.52C496.407 601.34 496.437 601.16 496.497 600.98C496.857 599.48 496.917 597.95 496.677 596.39C496.197 592.43 494.427 589.97 491.367 589.01ZM492.897 614.93L492.267 614.66H483.177H474.177V626.09V637.52H482.187C488.187 637.52 491.697 637.37 492.717 637.07C496.677 635.81 498.807 632.72 499.107 627.8C499.167 627.08 499.167 626.33 499.107 625.55C498.927 623.39 498.567 621.59 498.027 620.15C496.947 617.51 495.237 615.77 492.897 614.93ZM537.57 586.04V582.8H565.47H593.46V583.16C593.52 583.4 594 587.27 594.9 594.77C595.68 602.09 596.13 605.96 596.25 606.38V606.74H593.01H589.77L589.59 605.21C589.05 601.31 588.33 598.34 587.43 596.3C585.57 592.52 582.12 590.27 577.08 589.55C575.46 589.37 572.43 589.28 567.99 589.28H562.32V599.09V608.99H563.94C566.7 608.99 568.71 608.66 569.97 608C570.99 607.58 571.74 606.92 572.22 606.02C573.06 604.64 573.48 602.51 573.48 599.63V598.46H576.72H579.96V612.23V626H576.72H573.48V624.83C573.48 621.95 573.06 619.82 572.22 618.44C571.74 617.54 570.99 616.88 569.97 616.46C568.71 615.8 566.7 615.47 563.94 615.47H562.32V626.45V637.52H568.17C572.43 637.52 574.83 637.49 575.37 637.43C581.49 637.01 585.81 635.03 588.33 631.49C588.63 631.13 589.02 630.44 589.5 629.42C590.58 627.32 591.51 624.02 592.29 619.52C592.41 618.32 592.53 617.6 592.65 617.36V617.09H595.89H599.13V617.36C599.07 617.48 598.38 621.86 597.06 630.5C595.74 639.2 595.05 643.61 594.99 643.73V644H566.28H537.57V640.76V637.52H542.43H547.29V613.4V589.28H542.43H537.57V586.04ZM619.097 585.5V582.26H620.267C620.207 582.26 623.087 582.32 628.907 582.44C633.887 582.5 639.227 582.5 644.927 582.44L654.737 582.26H655.997V585.5V588.74H649.967H643.847V613.13V637.52H647.717C650.477 637.52 652.127 637.46 652.667 637.34C655.127 637.04 657.347 636.23 659.327 634.91C662.987 632.39 665.297 628.19 666.257 622.31C666.737 619.67 666.977 617.96 666.977 617.18C666.977 617.12 668.057 617.09 670.217 617.09H673.457V617.54C673.337 617.84 672.887 622.16 672.107 630.5C671.207 639.08 670.727 643.43 670.667 643.55V644H644.837H619.097V640.76V637.52H623.957H628.817V613.13V588.74H623.957H619.097V585.5ZM727.671 581.27H733.071H733.161C733.941 581.57 734.391 581.9 734.511 582.26L756.111 637.07L756.291 637.52H761.151H765.921V640.76V644H764.841L757.101 643.82C752.721 643.76 747.981 643.76 742.881 643.82L734.151 644H732.981V640.76V637.52H736.851L740.721 637.43L739.101 633.38L737.481 629.33H726.411C719.031 629.33 715.341 629.36 715.341 629.42L713.721 633.47L712.191 637.43C712.191 637.49 713.481 637.52 716.061 637.52H719.841V640.76V644H718.941L712.281 643.82C708.381 643.76 704.781 643.76 701.481 643.82L695.811 644H695.001V640.76V637.52H699.771H704.631L704.811 637.07L726.411 582.26C726.591 581.96 727.011 581.63 727.671 581.27ZM730.731 612.05L726.501 601.25H726.411L717.951 622.85H726.501L734.961 622.76L730.731 612.05Z" fill="#5F5F5F"/>
<path d="M314.525 228.713C311.658 261.552 319.154 325.5 371.811 352C327.255 323.195 330.384 248.877 334.778 233.322C356.766 176.288 383.384 165.342 412.316 70.2844C434.883 142.874 475.88 190.114 493.905 241.388C497.955 276.53 492.552 305.335 463.237 345.087C508.371 308.216 513 278.835 513 249.454C513 169.375 449.349 112.917 412.316 0C365.446 152.668 320.312 162.462 314.525 228.713Z" fill="#DE1F62"/>
<path d="M558.909 14C532.314 65.734 519.017 89.5665 493 132C535.783 108.749 548.503 70.9655 551.393 64.5714C556.018 83.7537 557.175 88.9852 563.534 108.167C569.894 80.266 567.003 55.2709 558.909 14Z" fill="#DE1F62"/>
<path d="M279.091 11C305.686 61.8572 318.983 85.2857 345 127C302.217 104.143 289.497 67 286.607 60.7143C281.982 79.5714 280.825 84.7143 274.466 103.571C268.106 76.1429 270.997 51.5714 279.091 11Z" fill="#DE1F62"/>
<path d="M142 86C205.472 96.3592 275.292 117.078 316.261 149.306C271.253 136.645 275.292 123.984 193.931 123.984C246.44 203.98 225.796 200.527 275.292 301.241C289.717 330.592 319.724 347.857 363 368C346.842 368 300.759 357.323 254.52 317.355C200.856 251.171 203.741 153.91 142 86Z" fill="#DE1F62"/>
<path d="M699 87C634.667 97.3959 563.899 118.188 522.374 150.531C567.993 137.825 563.899 125.118 646.364 125.118C593.143 205.398 614.066 201.933 563.899 303.004C549.278 332.459 518.863 349.786 475 370C491.377 370 538.086 359.285 584.953 319.175C639.346 252.757 636.421 155.151 699 87Z" fill="#DE1F62"/>
<path d="M284.611 424C335.301 424 395.784 395.777 405 375.618C388.871 386.562 346.246 411.329 271.939 396.353C203.968 380.226 148.094 338.18 80.1228 327.237C110.652 298.438 179.775 269.064 190.143 261C134.269 268.488 93.9474 284.615 11 334.148C131.389 347.972 183.807 418.24 284.611 424Z" fill="#DE1F62"/>
<path d="M541.694 425C490.876 425 430.24 396.604 421 376.322C437.17 387.332 479.904 412.251 554.399 397.184C622.542 380.958 678.558 338.654 746.702 327.643C716.095 298.668 646.797 269.113 636.402 261C692.418 268.534 732.842 284.76 816 334.597C695.306 348.505 642.754 419.205 541.694 425Z" fill="#DE1F62"/>
<path d="M280.932 481.5C334.838 468 396 425 396 425C396 425 335.596 491.272 285.079 505.5C214.068 525.5 121.307 468.785 77.7487 481.5C28.0751 496 0 553 0 553C0 553 31.4217 481.827 71.0105 464.5C126.99 440 206.348 500.179 280.932 481.5Z" fill="#005212"/>
<path d="M547.068 481.5C493.162 468 432 425 432 425C432 425 492.404 491.272 542.921 505.5C613.932 525.5 706.693 468.785 750.251 481.5C799.925 496 828 553 828 553C828 553 796.578 481.827 756.99 464.5C701.01 440 621.652 500.179 547.068 481.5Z" fill="#005212"/>
</svg>
